HIERARCHY
ROOT Hips
{
	OFFSET -0.001795 -0.223333 0.028219
	CHANNELS 6 Xposition Yposition Zposition Zrotation Yrotation Xrotation 
	JOINT LeftUpLeg
	{
		OFFSET 0.069520 -0.091406 -0.006815
		CHANNELS 3 Zrotation Yrotation Xrotation
		JOINT LeftLeg
		{
			OFFSET 0.034277 -0.375199 -0.004496
			CHANNELS 3 Zrotation Yrotation Xrotation
			JOINT LeftFoot
			{
				OFFSET -0.013596 -0.397961 -0.043693
				CHANNELS 3 Zrotation Yrotation Xrotation
				JOINT LeftToe
				{
					OFFSET 0.026358 -0.055791 0.119288
					CHANNELS 3 Zrotation Yrotation Xrotation
					End Site
					{
						OFFSET 0.000000 0.000000 0.000000
					}
				}
			}
		}
	}
	JOINT RightUpLeg
	{
		OFFSET -0.067670 -0.090522 -0.004320
		CHANNELS 3 Zrotation Yrotation Xrotation
		JOINT RightLeg
		{
			OFFSET -0.038290 -0.382569 -0.008850
			CHANNELS 3 Zrotation Yrotation Xrotation
			JOINT RightFoot
			{
				OFFSET 0.015774 -0.398415 -0.042312
				CHANNELS 3 Zrotation Yrotation Xrotation
				JOINT RightToe
				{
					OFFSET -0.025372 -0.048144 0.123348
					CHANNELS 3 Zrotation Yrotation Xrotation
					End Site
					{
						OFFSET 0.000000 0.000000 0.000000
					}
				}
			}
		}
	}
	JOINT Spine
	{
		OFFSET -0.002533 0.108963 -0.026696
		CHANNELS 3 Zrotation Yrotation Xrotation
		JOINT Spine1
		{
			OFFSET 0.005487 0.135180 0.001092
			CHANNELS 3 Zrotation Yrotation Xrotation
			JOINT Spine2
			{
				OFFSET 0.001457 0.052922 0.025425
				CHANNELS 3 Zrotation Yrotation Xrotation
				JOINT Neck
				{
					OFFSET -0.002778 0.213870 -0.042857
					CHANNELS 3 Zrotation Yrotation Xrotation
					JOINT Head
					{
						OFFSET 0.005152 0.064970 0.051349
						CHANNELS 3 Zrotation Yrotation Xrotation
						End Site
						{
							OFFSET 0.000000 0.000000 0.000000
						}
					}
				}
				JOINT LeftShoulder
				{
					OFFSET 0.078845 0.121749 -0.034090
					CHANNELS 3 Zrotation Yrotation Xrotation
					JOINT LeftArm
					{
						OFFSET 0.090977 0.030469 -0.008868
						CHANNELS 3 Zrotation Yrotation Xrotation
						JOINT LeftForeArm
						{
							OFFSET 0.259612 -0.012772 -0.027456
							CHANNELS 3 Zrotation Yrotation Xrotation
							JOINT LeftHand
							{
								OFFSET 0.249234 0.008986 -0.001171
								CHANNELS 3 Zrotation Yrotation Xrotation
								End Site
								{
									OFFSET 0.000000 0.000000 0.000000
								}
							}
						}
					}
				}
				JOINT RightShoulder
				{
					OFFSET -0.081759 0.118833 -0.038615
					CHANNELS 3 Zrotation Yrotation Xrotation
					JOINT RightArm
					{
						OFFSET -0.096012 0.032551 -0.009143
						CHANNELS 3 Zrotation Yrotation Xrotation
						JOINT RightForeArm
						{
							OFFSET -0.253742 -0.013329 -0.021401
							CHANNELS 3 Zrotation Yrotation Xrotation
							JOINT RightHand
							{
								OFFSET -0.255298 0.007772 -0.005559
								CHANNELS 3 Zrotation Yrotation Xrotation
								End Site
								{
									OFFSET 0.000000 0.000000 0.000000
								}
							}
						}
					}
				}
			}
		}
	}
}
MOTION
Frames: 11
Frame Time: 0.050000
-0.497146 0.737131 1.131357 5.130680 11.593463 4.333876 29.776315 4.016853 -47.143313 -15.939030 9.167868 83.117649 9.107991 19.115074 -1.113155 0.000000 0.000000 0.000000 2.340764 3.587783 -54.325227 7.560366 -8.749592 79.849091 -13.509870 -34.065423 -8.047774 0.000000 0.000000 0.000000 1.597487 -7.470037 60.096025 -5.796214 1.762987 -35.114195 -6.134559 2.911059 23.525829 17.110495 -2.980581 -45.698532 0.000000 0.000000 0.000000 13.086138 -44.174243 10.107637 26.888747 -28.816671 -6.487720 97.109193 -19.337743 -23.414858 0.000000 0.000000 0.000000 6.294623 26.121851 11.358938 -27.752439 31.429075 -6.907918 -97.625649 32.139478 -33.518511 0.000000 0.000000 0.000000 
-0.498744 0.729403 1.132929 5.376785 11.815298 4.652117 29.368356 3.770925 -46.906958 -15.252759 9.263416 89.460889 7.760969 15.940109 -5.016017 0.000000 0.000000 0.000000 2.574906 3.663087 -55.335256 7.919312 -9.352597 81.319028 -17.419535 -40.176831 -1.623947 0.000000 0.000000 0.000000 1.847130 -7.714558 60.162254 -6.090141 1.792897 -35.233145 -5.530874 4.143031 23.214973 16.906078 -2.776451 -45.347327 0.000000 0.000000 0.000000 12.648079 -44.639580 10.421663 26.135190 -28.200171 -6.296957 98.814561 -18.388929 -23.317864 0.000000 0.000000 0.000000 4.933541 25.673504 10.947716 -29.089133 31.523555 -7.018925 -96.243377 30.690224 -30.970923 0.000000 0.000000 0.000000 
-0.499942 0.722943 1.134762 5.373336 12.634295 4.481176 29.285741 3.456452 -46.438059 -15.542038 9.491788 91.671487 7.442097 14.973005 -7.309168 0.000000 0.000000 0.000000 2.397921 3.341363 -55.559254 8.351900 -10.235464 81.677384 -23.237847 -46.481229 6.622209 0.000000 0.000000 0.000000 2.318666 -8.330429 60.385050 -6.429597 1.835940 -35.364745 -4.992392 4.658241 23.334537 17.111994 -2.938238 -44.512531 0.000000 0.000000 0.000000 13.165474 -44.326210 10.186422 25.009799 -27.996712 -6.111662 99.604178 -17.416924 -22.847255 0.000000 0.000000 0.000000 3.755661 25.736221 10.672713 -30.350080 31.217218 -7.024089 -93.580388 29.013531 -27.918221 0.000000 0.000000 0.000000 
-0.500873 0.718523 1.136542 5.159167 13.515795 4.621688 29.789542 3.323036 -46.285907 -17.290888 10.973728 90.194859 8.175470 16.840865 -6.628205 0.000000 0.000000 0.000000 1.909863 2.823473 -56.267360 8.965271 -11.304698 82.031093 -24.214212 -47.023458 8.466915 0.000000 0.000000 0.000000 2.651523 -8.899462 60.577645 -5.922531 1.765025 -35.608444 -4.717950 6.051819 23.377740 16.795101 -2.811663 -43.343195 0.000000 0.000000 0.000000 13.736396 -44.606718 10.104315 24.091355 -27.472518 -5.977657 99.846776 -16.620322 -22.587073 0.000000 0.000000 0.000000 2.715751 25.324234 10.344432 -30.852701 31.038273 -6.837304 -92.501347 28.641875 -26.772803 0.000000 0.000000 0.000000 
-0.501777 0.716603 1.138104 5.095917 14.073702 5.078673 30.116856 3.131905 -45.055360 -19.744174 12.352285 84.706365 9.983493 21.097159 -5.983544 0.000000 0.000000 0.000000 1.655423 2.511905 -56.897212 9.030423 -11.635930 82.480159 -23.524319 -46.172411 8.074490 0.000000 0.000000 0.000000 3.193253 -9.403313 60.357573 -6.162966 1.791268 -35.409473 -4.429880 6.177065 23.873481 17.195644 -2.702998 -44.513457 0.000000 0.000000 0.000000 15.284304 -43.141588 9.410985 22.776440 -27.501457 -5.843857 100.955484 -15.052875 -21.535774 0.000000 0.000000 0.000000 -0.160424 24.056410 8.993084 -29.785797 31.829069 -6.810216 -92.338516 27.180017 -24.745051 0.000000 0.000000 0.000000 
-0.503274 0.715605 1.139774 4.934007 14.752552 4.362693 28.905469 2.483242 -43.501738 -20.585271 11.591242 80.192291 10.948910 22.972884 -2.081198 0.000000 0.000000 0.000000 0.883237 1.914076 -55.608197 9.780954 -12.913919 82.161131 -22.242722 -45.332256 5.651356 0.000000 0.000000 0.000000 3.629880 -9.960381 60.559057 -5.540792 1.734616 -35.239835 -4.760956 6.560488 24.498909 17.968771 -2.982972 -44.424803 0.000000 0.000000 0.000000 16.511822 -42.294401 8.894063 21.596435 -27.143127 -5.597125 100.504228 -13.800457 -20.498060 0.000000 0.000000 0.000000 -1.529329 24.344844 8.648035 -28.416248 31.896945 -6.483330 -92.957239 26.233492 -23.763817 0.000000 0.000000 0.000000 
-0.505561 0.715488 1.141625 5.116297 15.417197 4.297159 28.259599 2.109605 -43.235267 -21.831903 11.656008 76.317903 11.995260 24.819438 0.664165 0.000000 0.000000 0.000000 -0.300734 1.134764 -54.537208 10.108302 -13.755087 82.231938 -18.508891 -41.483137 -0.054338 0.000000 0.000000 0.000000 3.539988 -10.135258 60.569821 -5.376280 1.710482 -35.264558 -4.618086 6.712330 25.002022 17.542431 -3.001869 -43.262443 0.000000 0.000000 0.000000 17.229873 -42.246951 8.654705 21.174052 -26.723330 -5.421429 99.965420 -13.636819 -20.427729 0.000000 0.000000 0.000000 -2.038235 23.336954 8.123835 -26.786970 33.610842 -6.714190 -93.391196 25.922682 -23.261982 0.000000 0.000000 0.000000 
-0.508840 0.714307 1.143304 4.893826 16.003816 4.098360 27.064844 1.639306 -43.638295 -20.614542 9.832503 74.454547 12.359527 25.249547 3.589018 0.000000 0.000000 0.000000 -0.748812 0.766105 -53.524697 10.315863 -14.543982 82.635502 -15.479802 -37.560635 -5.451372 0.000000 0.000000 0.000000 4.027672 -10.633094 60.470581 -5.100718 1.708351 -34.749106 -4.922092 6.838970 24.518567 17.979352 -3.171271 -43.012126 0.000000 0.000000 0.000000 16.796496 -42.755141 8.877169 21.778078 -25.547147 -5.161295 96.901375 -12.855775 -18.725709 0.000000 0.000000 0.000000 -1.006654 23.294738 8.440326 -25.578612 34.073674 -6.670719 -93.099335 26.607584 -23.692410 0.000000 0.000000 0.000000 
-0.512932 0.713828 1.145239 5.105097 15.202546 3.814487 26.448500 1.697445 -44.026230 -19.752291 9.339356 74.283792 12.847359 25.721327 6.786424 0.000000 0.000000 0.000000 -0.798782 1.013983 -52.542397 9.898821 -14.173213 84.093018 -12.353819 -31.835176 -11.056387 0.000000 0.000000 0.000000 3.170265 -9.789794 60.489889 -3.956282 1.556333 -34.863529 -5.025084 7.372996 24.850961 17.600316 -3.043455 -42.806561 0.000000 0.000000 0.000000 17.708903 -42.519090 8.553036 21.320408 -23.878207 -4.591052 94.715089 -11.904664 -17.513273 0.000000 0.000000 0.000000 1.004564 23.385761 9.099053 -24.521055 33.898813 -6.429256 -93.628300 27.684098 -25.097776 0.000000 0.000000 0.000000 
-0.517661 0.715395 1.147680 5.290944 14.200559 4.792101 27.010425 2.186810 -45.943714 -18.799038 9.232570 74.600605 13.531367 26.171790 12.610716 0.000000 0.000000 0.000000 -0.266301 1.517734 -53.224634 9.718728 -13.453514 84.377242 -11.489956 -29.867646 -12.576590 0.000000 0.000000 0.000000 3.529528 -9.496879 59.686581 -4.536539 1.587428 -35.960586 -5.051541 6.693165 25.554793 16.626675 -2.722982 -43.011574 0.000000 0.000000 0.000000 16.668664 -42.854385 8.878114 21.944351 -22.518232 -4.168823 91.494116 -11.829683 -16.194106 0.000000 0.000000 0.000000 3.103723 23.441196 9.762293 -23.197350 33.777082 -6.333434 -94.479705 29.599671 -27.625111 0.000000 0.000000 0.000000 
-0.522296 0.718021 1.152246 6.063736 12.589714 4.354062 25.827313 2.352910 -47.421570 -17.877711 9.241483 75.780618 14.097368 26.677265 14.749601 0.000000 0.000000 0.000000 0.660234 2.425861 -51.838960 8.503685 -11.643457 85.669186 -10.349199 -27.085161 -15.663810 0.000000 0.000000 0.000000 3.443501 -8.780668 59.362799 -3.915947 1.545326 -34.900277 -6.077597 6.649443 25.166716 17.041435 -3.019819 -42.705792 0.000000 0.000000 0.000000 14.755033 -43.345039 9.508131 22.611119 -21.484579 -3.860123 89.841681 -12.895956 -16.520509 0.000000 0.000000 0.000000 4.663681 24.918930 10.810274 -22.377157 31.482899 -5.572826 -93.167500 32.000415 -29.808143 0.000000 0.000000 0.000000 
